# Tiled2Unity generated file. Do not modify by hand.
# Wavefront file for 'CasaInceput_mesh_0003.obj'

# Vertices (Count = 532)
v -736 -560 0
v -752 -560 0
v -752 -544 0
v -736 -544 0
v -720 -560 0
v -736 -560 0
v -736 -544 0
v -720 -544 0
v -704 -560 0
v -720 -560 0
v -720 -544 0
v -704 -544 0
v -688 -560 0
v -704 -560 0
v -704 -544 0
v -688 -544 0
v -672 -560 0
v -688 -560 0
v -688 -544 0
v -672 -544 0
v -656 -560 0
v -672 -560 0
v -672 -544 0
v -656 -544 0
v -640 -560 0
v -656 -560 0
v -656 -544 0
v -640 -544 0
v -624 -560 0
v -640 -560 0
v -640 -544 0
v -624 -544 0
v -608 -560 0
v -624 -560 0
v -624 -544 0
v -608 -544 0
v -592 -560 0
v -608 -560 0
v -608 -544 0
v -592 -544 0
v -576 -560 0
v -592 -560 0
v -592 -544 0
v -576 -544 0
v -736 -576 0
v -752 -576 0
v -752 -560 0
v -736 -560 0
v -720 -576 0
v -736 -576 0
v -736 -560 0
v -720 -560 0
v -704 -576 0
v -720 -576 0
v -720 -560 0
v -704 -560 0
v -688 -576 0
v -704 -576 0
v -704 -560 0
v -688 -560 0
v -672 -576 0
v -688 -576 0
v -688 -560 0
v -672 -560 0
v -656 -576 0
v -672 -576 0
v -672 -560 0
v -656 -560 0
v -640 -576 0
v -656 -576 0
v -656 -560 0
v -640 -560 0
v -624 -576 0
v -640 -576 0
v -640 -560 0
v -624 -560 0
v -608 -576 0
v -624 -576 0
v -624 -560 0
v -608 -560 0
v -592 -576 0
v -608 -576 0
v -608 -560 0
v -592 -560 0
v -576 -576 0
v -592 -576 0
v -592 -560 0
v -576 -560 0
v -736 -592 0
v -752 -592 0
v -752 -576 0
v -736 -576 0
v -720 -592 0
v -736 -592 0
v -736 -576 0
v -720 -576 0
v -704 -592 0
v -720 -592 0
v -720 -576 0
v -704 -576 0
v -688 -592 0
v -704 -592 0
v -704 -576 0
v -688 -576 0
v -672 -592 0
v -688 -592 0
v -688 -576 0
v -672 -576 0
v -656 -592 0
v -672 -592 0
v -672 -576 0
v -656 -576 0
v -640 -592 0
v -656 -592 0
v -656 -576 0
v -640 -576 0
v -624 -592 0
v -640 -592 0
v -640 -576 0
v -624 -576 0
v -608 -592 0
v -624 -592 0
v -624 -576 0
v -608 -576 0
v -592 -592 0
v -608 -592 0
v -608 -576 0
v -592 -576 0
v -576 -592 0
v -592 -592 0
v -592 -576 0
v -576 -576 0
v -736 -608 0
v -752 -608 0
v -752 -592 0
v -736 -592 0
v -720 -608 0
v -736 -608 0
v -736 -592 0
v -720 -592 0
v -704 -608 0
v -720 -608 0
v -720 -592 0
v -704 -592 0
v -688 -608 0
v -704 -608 0
v -704 -592 0
v -688 -592 0
v -672 -608 0
v -688 -608 0
v -688 -592 0
v -672 -592 0
v -656 -608 0
v -672 -608 0
v -672 -592 0
v -656 -592 0
v -640 -608 0
v -656 -608 0
v -656 -592 0
v -640 -592 0
v -624 -608 0
v -640 -608 0
v -640 -592 0
v -624 -592 0
v -608 -608 0
v -624 -608 0
v -624 -592 0
v -608 -592 0
v -592 -608 0
v -608 -608 0
v -608 -592 0
v -592 -592 0
v -576 -608 0
v -592 -608 0
v -592 -592 0
v -576 -592 0
v -736 -624 0
v -752 -624 0
v -752 -608 0
v -736 -608 0
v -720 -624 0
v -736 -624 0
v -736 -608 0
v -720 -608 0
v -704 -624 0
v -720 -624 0
v -720 -608 0
v -704 -608 0
v -688 -624 0
v -704 -624 0
v -704 -608 0
v -688 -608 0
v -672 -624 0
v -688 -624 0
v -688 -608 0
v -672 -608 0
v -656 -624 0
v -672 -624 0
v -672 -608 0
v -656 -608 0
v -640 -624 0
v -656 -624 0
v -656 -608 0
v -640 -608 0
v -624 -624 0
v -640 -624 0
v -640 -608 0
v -624 -608 0
v -608 -624 0
v -624 -624 0
v -624 -608 0
v -608 -608 0
v -592 -624 0
v -608 -624 0
v -608 -608 0
v -592 -608 0
v -576 -624 0
v -592 -624 0
v -592 -608 0
v -576 -608 0
v -736 -640 0
v -752 -640 0
v -752 -624 0
v -736 -624 0
v -720 -640 0
v -736 -640 0
v -736 -624 0
v -720 -624 0
v -704 -640 0
v -720 -640 0
v -720 -624 0
v -704 -624 0
v -688 -640 0
v -704 -640 0
v -704 -624 0
v -688 -624 0
v -672 -640 0
v -688 -640 0
v -688 -624 0
v -672 -624 0
v -656 -640 0
v -672 -640 0
v -672 -624 0
v -656 -624 0
v -640 -640 0
v -656 -640 0
v -656 -624 0
v -640 -624 0
v -624 -640 0
v -640 -640 0
v -640 -624 0
v -624 -624 0
v -608 -640 0
v -624 -640 0
v -624 -624 0
v -608 -624 0
v -592 -640 0
v -608 -640 0
v -608 -624 0
v -592 -624 0
v -576 -640 0
v -592 -640 0
v -592 -624 0
v -576 -624 0
v -736 -656 0
v -752 -656 0
v -752 -640 0
v -736 -640 0
v -720 -656 0
v -736 -656 0
v -736 -640 0
v -720 -640 0
v -704 -656 0
v -720 -656 0
v -720 -640 0
v -704 -640 0
v -688 -656 0
v -704 -656 0
v -704 -640 0
v -688 -640 0
v -672 -656 0
v -688 -656 0
v -688 -640 0
v -672 -640 0
v -656 -656 0
v -672 -656 0
v -672 -640 0
v -656 -640 0
v -640 -656 0
v -656 -656 0
v -656 -640 0
v -640 -640 0
v -624 -656 0
v -640 -656 0
v -640 -640 0
v -624 -640 0
v -608 -656 0
v -624 -656 0
v -624 -640 0
v -608 -640 0
v -592 -656 0
v -608 -656 0
v -608 -640 0
v -592 -640 0
v -576 -656 0
v -592 -656 0
v -592 -640 0
v -576 -640 0
v -736 -672 0
v -752 -672 0
v -752 -656 0
v -736 -656 0
v -720 -672 0
v -736 -672 0
v -736 -656 0
v -720 -656 0
v -704 -672 0
v -720 -672 0
v -720 -656 0
v -704 -656 0
v -688 -672 0
v -704 -672 0
v -704 -656 0
v -688 -656 0
v -672 -672 0
v -688 -672 0
v -688 -656 0
v -672 -656 0
v -656 -672 0
v -672 -672 0
v -672 -656 0
v -656 -656 0
v -640 -672 0
v -656 -672 0
v -656 -656 0
v -640 -656 0
v -624 -672 0
v -640 -672 0
v -640 -656 0
v -624 -656 0
v -608 -672 0
v -624 -672 0
v -624 -656 0
v -608 -656 0
v -592 -672 0
v -608 -672 0
v -608 -656 0
v -592 -656 0
v -576 -672 0
v -592 -672 0
v -592 -656 0
v -576 -656 0
v -736 -688 0
v -752 -688 0
v -752 -672 0
v -736 -672 0
v -720 -688 0
v -736 -688 0
v -736 -672 0
v -720 -672 0
v -704 -688 0
v -720 -688 0
v -720 -672 0
v -704 -672 0
v -688 -688 0
v -704 -688 0
v -704 -672 0
v -688 -672 0
v -672 -688 0
v -688 -688 0
v -688 -672 0
v -672 -672 0
v -656 -688 0
v -672 -688 0
v -672 -672 0
v -656 -672 0
v -640 -688 0
v -656 -688 0
v -656 -672 0
v -640 -672 0
v -624 -688 0
v -640 -688 0
v -640 -672 0
v -624 -672 0
v -608 -688 0
v -624 -688 0
v -624 -672 0
v -608 -672 0
v -592 -688 0
v -608 -688 0
v -608 -672 0
v -592 -672 0
v -576 -688 0
v -592 -688 0
v -592 -672 0
v -576 -672 0
v -736 -704 0
v -752 -704 0
v -752 -688 0
v -736 -688 0
v -720 -704 0
v -736 -704 0
v -736 -688 0
v -720 -688 0
v -704 -704 0
v -720 -704 0
v -720 -688 0
v -704 -688 0
v -688 -704 0
v -704 -704 0
v -704 -688 0
v -688 -688 0
v -672 -704 0
v -688 -704 0
v -688 -688 0
v -672 -688 0
v -656 -704 0
v -672 -704 0
v -672 -688 0
v -656 -688 0
v -640 -704 0
v -656 -704 0
v -656 -688 0
v -640 -688 0
v -624 -704 0
v -640 -704 0
v -640 -688 0
v -624 -688 0
v -608 -704 0
v -624 -704 0
v -624 -688 0
v -608 -688 0
v -592 -704 0
v -608 -704 0
v -608 -688 0
v -592 -688 0
v -576 -704 0
v -592 -704 0
v -592 -688 0
v -576 -688 0
v -736 -720 0
v -752 -720 0
v -752 -704 0
v -736 -704 0
v -720 -720 0
v -736 -720 0
v -736 -704 0
v -720 -704 0
v -704 -720 0
v -720 -720 0
v -720 -704 0
v -704 -704 0
v -688 -720 0
v -704 -720 0
v -704 -704 0
v -688 -704 0
v -672 -720 0
v -688 -720 0
v -688 -704 0
v -672 -704 0
v -656 -720 0
v -672 -720 0
v -672 -704 0
v -656 -704 0
v -640 -720 0
v -656 -720 0
v -656 -704 0
v -640 -704 0
v -624 -720 0
v -640 -720 0
v -640 -704 0
v -624 -704 0
v -608 -720 0
v -624 -720 0
v -624 -704 0
v -608 -704 0
v -592 -720 0
v -608 -720 0
v -608 -704 0
v -592 -704 0
v -576 -720 0
v -592 -720 0
v -592 -704 0
v -576 -704 0
v -736 -736 0
v -752 -736 0
v -752 -720 0
v -736 -720 0
v -720 -736 0
v -736 -736 0
v -736 -720 0
v -720 -720 0
v -704 -736 0
v -720 -736 0
v -720 -720 0
v -704 -720 0
v -688 -736 0
v -704 -736 0
v -704 -720 0
v -688 -720 0
v -672 -736 0
v -688 -736 0
v -688 -720 0
v -672 -720 0
v -656 -736 0
v -672 -736 0
v -672 -720 0
v -656 -720 0
v -640 -736 0
v -656 -736 0
v -656 -720 0
v -640 -720 0
v -624 -736 0
v -640 -736 0
v -640 -720 0
v -624 -720 0
v -608 -736 0
v -624 -736 0
v -624 -720 0
v -608 -720 0
v -592 -736 0
v -608 -736 0
v -608 -720 0
v -592 -720 0
v -576 -736 0
v -592 -736 0
v -592 -720 0
v -576 -720 0
v -656 -752 0
v -672 -752 0
v -672 -736 0
v -656 -736 0

# Texture cooridinates (Count = 48)
vt 0.3336777 0.3878327
vt 0.3502066 0.3878327
vt 0.3502066 0.418251
vt 0.3336777 0.418251
vt 0.2809917 0.4201521
vt 0.2975207 0.4201521
vt 0.2975207 0.4505703
vt 0.2809917 0.4505703
vt 0.1404959 0.8403042
vt 0.1570248 0.8403042
vt 0.1570248 0.8707224
vt 0.1404959 0.8707224
vt 0.2107438 0.4524715
vt 0.2272727 0.4524715
vt 0.2272727 0.4828897
vt 0.2107438 0.4828897
vt 0.1931818 0.4524715
vt 0.2097107 0.4524715
vt 0.2097107 0.4828897
vt 0.1931818 0.4828897
vt 0.1756198 0.4524715
vt 0.1921488 0.4524715
vt 0.1921488 0.4828897
vt 0.1756198 0.4828897
vt 0.2107438 0.4201521
vt 0.2272727 0.4201521
vt 0.2272727 0.4505703
vt 0.2107438 0.4505703
vt 0.1931818 0.4201521
vt 0.2097107 0.4201521
vt 0.2097107 0.4505703
vt 0.1931818 0.4505703
vt 0.1756198 0.4201521
vt 0.1921488 0.4201521
vt 0.1921488 0.4505703
vt 0.1756198 0.4505703
vt 0.2107438 0.3878327
vt 0.2272727 0.3878327
vt 0.2272727 0.418251
vt 0.2107438 0.418251
vt 0.1931818 0.3878327
vt 0.2097107 0.3878327
vt 0.2097107 0.418251
vt 0.1931818 0.418251
vt 0.1756198 0.3878327
vt 0.1921488 0.3878327
vt 0.1921488 0.418251
vt 0.1756198 0.418251

# Normal
vn 0 0 -1

# Mesh description
g CasaInceput_mesh_0003

# Faces
f 1/1/1 2/2/1 3/3/1 4/4/1
f 5/1/1 6/2/1 7/3/1 8/4/1
f 9/1/1 10/2/1 11/3/1 12/4/1
f 13/1/1 14/2/1 15/3/1 16/4/1
f 17/1/1 18/2/1 19/3/1 20/4/1
f 21/1/1 22/2/1 23/3/1 24/4/1
f 25/1/1 26/2/1 27/3/1 28/4/1
f 29/1/1 30/2/1 31/3/1 32/4/1
f 33/1/1 34/2/1 35/3/1 36/4/1
f 37/1/1 38/2/1 39/3/1 40/4/1
f 41/1/1 42/2/1 43/3/1 44/4/1
f 45/1/1 46/2/1 47/3/1 48/4/1
f 49/5/1 50/6/1 51/7/1 52/8/1
f 53/5/1 54/6/1 55/7/1 56/8/1
f 57/5/1 58/6/1 59/7/1 60/8/1
f 61/5/1 62/6/1 63/7/1 64/8/1
f 65/5/1 66/6/1 67/7/1 68/8/1
f 69/5/1 70/6/1 71/7/1 72/8/1
f 73/5/1 74/6/1 75/7/1 76/8/1
f 77/5/1 78/6/1 79/7/1 80/8/1
f 81/5/1 82/6/1 83/7/1 84/8/1
f 85/1/1 86/2/1 87/3/1 88/4/1
f 89/1/1 90/2/1 91/3/1 92/4/1
f 93/5/1 94/6/1 95/7/1 96/8/1
f 97/5/1 98/6/1 99/7/1 100/8/1
f 101/5/1 102/6/1 103/7/1 104/8/1
f 105/5/1 106/6/1 107/7/1 108/8/1
f 109/5/1 110/6/1 111/7/1 112/8/1
f 113/5/1 114/6/1 115/7/1 116/8/1
f 117/5/1 118/6/1 119/7/1 120/8/1
f 121/5/1 122/6/1 123/7/1 124/8/1
f 125/5/1 126/6/1 127/7/1 128/8/1
f 129/1/1 130/2/1 131/3/1 132/4/1
f 133/1/1 134/2/1 135/3/1 136/4/1
f 137/5/1 138/6/1 139/7/1 140/8/1
f 141/5/1 142/6/1 143/7/1 144/8/1
f 145/5/1 146/6/1 147/7/1 148/8/1
f 149/5/1 150/6/1 151/7/1 152/8/1
f 153/5/1 154/6/1 155/7/1 156/8/1
f 157/5/1 158/6/1 159/7/1 160/8/1
f 161/5/1 162/6/1 163/7/1 164/8/1
f 165/5/1 166/6/1 167/7/1 168/8/1
f 169/5/1 170/6/1 171/7/1 172/8/1
f 173/1/1 174/2/1 175/3/1 176/4/1
f 177/1/1 178/2/1 179/3/1 180/4/1
f 181/5/1 182/6/1 183/7/1 184/8/1
f 185/5/1 186/6/1 187/7/1 188/8/1
f 189/5/1 190/6/1 191/7/1 192/8/1
f 193/5/1 194/6/1 195/7/1 196/8/1
f 197/5/1 198/6/1 199/7/1 200/8/1
f 201/5/1 202/6/1 203/7/1 204/8/1
f 205/5/1 206/6/1 207/7/1 208/8/1
f 209/5/1 210/6/1 211/7/1 212/8/1
f 213/5/1 214/6/1 215/7/1 216/8/1
f 217/1/1 218/2/1 219/3/1 220/4/1
f 221/1/1 222/2/1 223/3/1 224/4/1
f 225/9/1 226/10/1 227/11/1 228/12/1
f 229/9/1 230/10/1 231/11/1 232/12/1
f 233/9/1 234/10/1 235/11/1 236/12/1
f 237/9/1 238/10/1 239/11/1 240/12/1
f 241/9/1 242/10/1 243/11/1 244/12/1
f 245/9/1 246/10/1 247/11/1 248/12/1
f 249/9/1 250/10/1 251/11/1 252/12/1
f 253/9/1 254/10/1 255/11/1 256/12/1
f 257/9/1 258/10/1 259/11/1 260/12/1
f 261/1/1 262/2/1 263/3/1 264/4/1
f 265/1/1 266/2/1 267/3/1 268/4/1
f 269/9/1 270/10/1 271/11/1 272/12/1
f 273/13/1 274/14/1 275/15/1 276/16/1
f 277/17/1 278/18/1 279/19/1 280/20/1
f 281/17/1 282/18/1 283/19/1 284/20/1
f 285/17/1 286/18/1 287/19/1 288/20/1
f 289/17/1 290/18/1 291/19/1 292/20/1
f 293/17/1 294/18/1 295/19/1 296/20/1
f 297/21/1 298/22/1 299/23/1 300/24/1
f 301/9/1 302/10/1 303/11/1 304/12/1
f 305/1/1 306/2/1 307/3/1 308/4/1
f 309/1/1 310/2/1 311/3/1 312/4/1
f 313/9/1 314/10/1 315/11/1 316/12/1
f 317/25/1 318/26/1 319/27/1 320/28/1
f 321/29/1 322/30/1 323/31/1 324/32/1
f 325/29/1 326/30/1 327/31/1 328/32/1
f 329/29/1 330/30/1 331/31/1 332/32/1
f 333/29/1 334/30/1 335/31/1 336/32/1
f 337/29/1 338/30/1 339/31/1 340/32/1
f 341/33/1 342/34/1 343/35/1 344/36/1
f 345/9/1 346/10/1 347/11/1 348/12/1
f 349/1/1 350/2/1 351/3/1 352/4/1
f 353/1/1 354/2/1 355/3/1 356/4/1
f 357/9/1 358/10/1 359/11/1 360/12/1
f 361/25/1 362/26/1 363/27/1 364/28/1
f 365/29/1 366/30/1 367/31/1 368/32/1
f 369/29/1 370/30/1 371/31/1 372/32/1
f 373/29/1 374/30/1 375/31/1 376/32/1
f 377/29/1 378/30/1 379/31/1 380/32/1
f 381/29/1 382/30/1 383/31/1 384/32/1
f 385/33/1 386/34/1 387/35/1 388/36/1
f 389/9/1 390/10/1 391/11/1 392/12/1
f 393/1/1 394/2/1 395/3/1 396/4/1
f 397/1/1 398/2/1 399/3/1 400/4/1
f 401/9/1 402/10/1 403/11/1 404/12/1
f 405/25/1 406/26/1 407/27/1 408/28/1
f 409/29/1 410/30/1 411/31/1 412/32/1
f 413/29/1 414/30/1 415/31/1 416/32/1
f 417/29/1 418/30/1 419/31/1 420/32/1
f 421/29/1 422/30/1 423/31/1 424/32/1
f 425/29/1 426/30/1 427/31/1 428/32/1
f 429/33/1 430/34/1 431/35/1 432/36/1
f 433/9/1 434/10/1 435/11/1 436/12/1
f 437/1/1 438/2/1 439/3/1 440/4/1
f 441/5/1 442/6/1 443/7/1 444/8/1
f 445/9/1 446/10/1 447/11/1 448/12/1
f 449/37/1 450/38/1 451/39/1 452/40/1
f 453/41/1 454/42/1 455/43/1 456/44/1
f 457/41/1 458/42/1 459/43/1 460/44/1
f 461/41/1 462/42/1 463/43/1 464/44/1
f 465/41/1 466/42/1 467/43/1 468/44/1
f 469/41/1 470/42/1 471/43/1 472/44/1
f 473/45/1 474/46/1 475/47/1 476/48/1
f 477/9/1 478/10/1 479/11/1 480/12/1
f 481/5/1 482/6/1 483/7/1 484/8/1
f 485/5/1 486/6/1 487/7/1 488/8/1
f 489/9/1 490/10/1 491/11/1 492/12/1
f 493/9/1 494/10/1 495/11/1 496/12/1
f 497/9/1 498/10/1 499/11/1 500/12/1
f 501/9/1 502/10/1 503/11/1 504/12/1
f 505/9/1 506/10/1 507/11/1 508/12/1
f 509/9/1 510/10/1 511/11/1 512/12/1
f 513/9/1 514/10/1 515/11/1 516/12/1
f 517/9/1 518/10/1 519/11/1 520/12/1
f 521/9/1 522/10/1 523/11/1 524/12/1
f 525/5/1 526/6/1 527/7/1 528/8/1
f 529/9/1 530/10/1 531/11/1 532/12/1

