# Tiled2Unity generated file. Do not modify by hand.
# Wavefront file for 'CasaInceput_mesh_0002.obj'

# Vertices (Count = 148)
v -864 -592 0
v -880 -592 0
v -880 -576 0
v -864 -576 0
v -864 -608 0
v -880 -608 0
v -880 -592 0
v -864 -592 0
v -848 -608 0
v -864 -608 0
v -864 -592 0
v -848 -592 0
v -832 -608 0
v -848 -608 0
v -848 -592 0
v -832 -592 0
v -832 -624 0
v -848 -624 0
v -848 -608 0
v -832 -608 0
v -816 -624 0
v -832 -624 0
v -832 -608 0
v -816 -608 0
v -800 -624 0
v -816 -624 0
v -816 -608 0
v -800 -608 0
v -800 -640 0
v -816 -640 0
v -816 -624 0
v -800 -624 0
v -784 -640 0
v -800 -640 0
v -800 -624 0
v -784 -624 0
v -784 -656 0
v -800 -656 0
v -800 -640 0
v -784 -640 0
v -704 -656 0
v -720 -656 0
v -720 -640 0
v -704 -640 0
v -688 -656 0
v -704 -656 0
v -704 -640 0
v -688 -640 0
v -672 -656 0
v -688 -656 0
v -688 -640 0
v -672 -640 0
v -656 -656 0
v -672 -656 0
v -672 -640 0
v -656 -640 0
v -640 -656 0
v -656 -656 0
v -656 -640 0
v -640 -640 0
v -624 -656 0
v -640 -656 0
v -640 -640 0
v -624 -640 0
v -608 -656 0
v -624 -656 0
v -624 -640 0
v -608 -640 0
v -784 -672 0
v -800 -672 0
v -800 -656 0
v -784 -656 0
v -704 -672 0
v -720 -672 0
v -720 -656 0
v -704 -656 0
v -608 -672 0
v -624 -672 0
v -624 -656 0
v -608 -656 0
v -784 -688 0
v -800 -688 0
v -800 -672 0
v -784 -672 0
v -704 -688 0
v -720 -688 0
v -720 -672 0
v -704 -672 0
v -608 -688 0
v -624 -688 0
v -624 -672 0
v -608 -672 0
v -784 -704 0
v -800 -704 0
v -800 -688 0
v -784 -688 0
v -768 -704 0
v -784 -704 0
v -784 -688 0
v -768 -688 0
v -704 -704 0
v -720 -704 0
v -720 -688 0
v -704 -688 0
v -608 -704 0
v -624 -704 0
v -624 -688 0
v -608 -688 0
v -768 -720 0
v -784 -720 0
v -784 -704 0
v -768 -704 0
v -704 -720 0
v -720 -720 0
v -720 -704 0
v -704 -704 0
v -688 -720 0
v -704 -720 0
v -704 -704 0
v -688 -704 0
v -672 -720 0
v -688 -720 0
v -688 -704 0
v -672 -704 0
v -656 -720 0
v -672 -720 0
v -672 -704 0
v -656 -704 0
v -640 -720 0
v -656 -720 0
v -656 -704 0
v -640 -704 0
v -624 -720 0
v -640 -720 0
v -640 -704 0
v -624 -704 0
v -608 -720 0
v -624 -720 0
v -624 -704 0
v -608 -704 0
v -768 -736 0
v -784 -736 0
v -784 -720 0
v -768 -720 0
v -768 -752 0
v -784 -752 0
v -784 -736 0
v -768 -736 0

# Texture cooridinates (Count = 8)
vt 0.6673554 0.8403042
vt 0.6838843 0.8403042
vt 0.6838843 0.8707224
vt 0.6673554 0.8707224
vt 0.1404959 0.8403042
vt 0.1570248 0.8403042
vt 0.1570248 0.8707224
vt 0.1404959 0.8707224

# Normal
vn 0 0 -1

# Mesh description
g CasaInceput_mesh_0002

# Faces
f 1/1/1 2/2/1 3/3/1 4/4/1
f 5/1/1 6/2/1 7/3/1 8/4/1
f 9/1/1 10/2/1 11/3/1 12/4/1
f 13/1/1 14/2/1 15/3/1 16/4/1
f 17/1/1 18/2/1 19/3/1 20/4/1
f 21/1/1 22/2/1 23/3/1 24/4/1
f 25/1/1 26/2/1 27/3/1 28/4/1
f 29/1/1 30/2/1 31/3/1 32/4/1
f 33/1/1 34/2/1 35/3/1 36/4/1
f 37/1/1 38/2/1 39/3/1 40/4/1
f 41/5/1 42/6/1 43/7/1 44/8/1
f 45/5/1 46/6/1 47/7/1 48/8/1
f 49/5/1 50/6/1 51/7/1 52/8/1
f 53/5/1 54/6/1 55/7/1 56/8/1
f 57/5/1 58/6/1 59/7/1 60/8/1
f 61/5/1 62/6/1 63/7/1 64/8/1
f 65/5/1 66/6/1 67/7/1 68/8/1
f 69/1/1 70/2/1 71/3/1 72/4/1
f 73/5/1 74/6/1 75/7/1 76/8/1
f 77/5/1 78/6/1 79/7/1 80/8/1
f 81/1/1 82/2/1 83/3/1 84/4/1
f 85/5/1 86/6/1 87/7/1 88/8/1
f 89/5/1 90/6/1 91/7/1 92/8/1
f 93/1/1 94/2/1 95/3/1 96/4/1
f 97/1/1 98/2/1 99/3/1 100/4/1
f 101/5/1 102/6/1 103/7/1 104/8/1
f 105/5/1 106/6/1 107/7/1 108/8/1
f 109/1/1 110/2/1 111/3/1 112/4/1
f 113/5/1 114/6/1 115/7/1 116/8/1
f 117/5/1 118/6/1 119/7/1 120/8/1
f 121/5/1 122/6/1 123/7/1 124/8/1
f 125/5/1 126/6/1 127/7/1 128/8/1
f 129/5/1 130/6/1 131/7/1 132/8/1
f 133/5/1 134/6/1 135/7/1 136/8/1
f 137/5/1 138/6/1 139/7/1 140/8/1
f 141/1/1 142/2/1 143/3/1 144/4/1
f 145/1/1 146/2/1 147/3/1 148/4/1

