# Tiled2Unity generated file. Do not modify by hand.
# Wavefront file for 'RPGMap_mesh_0004.obj'

# Vertices (Count = 608)
v -1744 -544 0
v -1760 -544 0
v -1760 -528 0
v -1744 -528 0
v -1728 -544 0
v -1744 -544 0
v -1744 -528 0
v -1728 -528 0
v -1712 -544 0
v -1728 -544 0
v -1728 -528 0
v -1712 -528 0
v -1696 -544 0
v -1712 -544 0
v -1712 -528 0
v -1696 -528 0
v -1680 -544 0
v -1696 -544 0
v -1696 -528 0
v -1680 -528 0
v -1664 -544 0
v -1680 -544 0
v -1680 -528 0
v -1664 -528 0
v -1648 -544 0
v -1664 -544 0
v -1664 -528 0
v -1648 -528 0
v -1632 -544 0
v -1648 -544 0
v -1648 -528 0
v -1632 -528 0
v -1616 -544 0
v -1632 -544 0
v -1632 -528 0
v -1616 -528 0
v -1600 -544 0
v -1616 -544 0
v -1616 -528 0
v -1600 -528 0
v -1584 -544 0
v -1600 -544 0
v -1600 -528 0
v -1584 -528 0
v -1568 -544 0
v -1584 -544 0
v -1584 -528 0
v -1568 -528 0
v -1552 -544 0
v -1568 -544 0
v -1568 -528 0
v -1552 -528 0
v -1536 -544 0
v -1552 -544 0
v -1552 -528 0
v -1536 -528 0
v -1520 -544 0
v -1536 -544 0
v -1536 -528 0
v -1520 -528 0
v -1504 -544 0
v -1520 -544 0
v -1520 -528 0
v -1504 -528 0
v -1488 -544 0
v -1504 -544 0
v -1504 -528 0
v -1488 -528 0
v -1472 -544 0
v -1488 -544 0
v -1488 -528 0
v -1472 -528 0
v -1456 -544 0
v -1472 -544 0
v -1472 -528 0
v -1456 -528 0
v -1440 -544 0
v -1456 -544 0
v -1456 -528 0
v -1440 -528 0
v -1424 -544 0
v -1440 -544 0
v -1440 -528 0
v -1424 -528 0
v -1408 -544 0
v -1424 -544 0
v -1424 -528 0
v -1408 -528 0
v -1392 -544 0
v -1408 -544 0
v -1408 -528 0
v -1392 -528 0
v -1376 -544 0
v -1392 -544 0
v -1392 -528 0
v -1376 -528 0
v -1360 -544 0
v -1376 -544 0
v -1376 -528 0
v -1360 -528 0
v -1344 -544 0
v -1360 -544 0
v -1360 -528 0
v -1344 -528 0
v -1328 -544 0
v -1344 -544 0
v -1344 -528 0
v -1328 -528 0
v -1312 -544 0
v -1328 -544 0
v -1328 -528 0
v -1312 -528 0
v -1296 -544 0
v -1312 -544 0
v -1312 -528 0
v -1296 -528 0
v -1280 -544 0
v -1296 -544 0
v -1296 -528 0
v -1280 -528 0
v -1264 -544 0
v -1280 -544 0
v -1280 -528 0
v -1264 -528 0
v -1248 -544 0
v -1264 -544 0
v -1264 -528 0
v -1248 -528 0
v -1232 -544 0
v -1248 -544 0
v -1248 -528 0
v -1232 -528 0
v -1216 -544 0
v -1232 -544 0
v -1232 -528 0
v -1216 -528 0
v -1200 -544 0
v -1216 -544 0
v -1216 -528 0
v -1200 -528 0
v -1184 -544 0
v -1200 -544 0
v -1200 -528 0
v -1184 -528 0
v -1168 -544 0
v -1184 -544 0
v -1184 -528 0
v -1168 -528 0
v -1152 -544 0
v -1168 -544 0
v -1168 -528 0
v -1152 -528 0
v -1136 -544 0
v -1152 -544 0
v -1152 -528 0
v -1136 -528 0
v -1120 -544 0
v -1136 -544 0
v -1136 -528 0
v -1120 -528 0
v -1104 -544 0
v -1120 -544 0
v -1120 -528 0
v -1104 -528 0
v -1088 -544 0
v -1104 -544 0
v -1104 -528 0
v -1088 -528 0
v -1072 -544 0
v -1088 -544 0
v -1088 -528 0
v -1072 -528 0
v -1056 -544 0
v -1072 -544 0
v -1072 -528 0
v -1056 -528 0
v -1040 -544 0
v -1056 -544 0
v -1056 -528 0
v -1040 -528 0
v -1024 -544 0
v -1040 -544 0
v -1040 -528 0
v -1024 -528 0
v -1008 -544 0
v -1024 -544 0
v -1024 -528 0
v -1008 -528 0
v -992 -544 0
v -1008 -544 0
v -1008 -528 0
v -992 -528 0
v -976 -544 0
v -992 -544 0
v -992 -528 0
v -976 -528 0
v -960 -544 0
v -976 -544 0
v -976 -528 0
v -960 -528 0
v -944 -544 0
v -960 -544 0
v -960 -528 0
v -944 -528 0
v -928 -544 0
v -944 -544 0
v -944 -528 0
v -928 -528 0
v -912 -544 0
v -928 -544 0
v -928 -528 0
v -912 -528 0
v -896 -544 0
v -912 -544 0
v -912 -528 0
v -896 -528 0
v -880 -544 0
v -896 -544 0
v -896 -528 0
v -880 -528 0
v -864 -544 0
v -880 -544 0
v -880 -528 0
v -864 -528 0
v -848 -544 0
v -864 -544 0
v -864 -528 0
v -848 -528 0
v -832 -544 0
v -848 -544 0
v -848 -528 0
v -832 -528 0
v -816 -544 0
v -832 -544 0
v -832 -528 0
v -816 -528 0
v -800 -544 0
v -816 -544 0
v -816 -528 0
v -800 -528 0
v -784 -544 0
v -800 -544 0
v -800 -528 0
v -784 -528 0
v -768 -544 0
v -784 -544 0
v -784 -528 0
v -768 -528 0
v -752 -544 0
v -768 -544 0
v -768 -528 0
v -752 -528 0
v -736 -544 0
v -752 -544 0
v -752 -528 0
v -736 -528 0
v -720 -544 0
v -736 -544 0
v -736 -528 0
v -720 -528 0
v -704 -544 0
v -720 -544 0
v -720 -528 0
v -704 -528 0
v -688 -544 0
v -704 -544 0
v -704 -528 0
v -688 -528 0
v -672 -544 0
v -688 -544 0
v -688 -528 0
v -672 -528 0
v -656 -544 0
v -672 -544 0
v -672 -528 0
v -656 -528 0
v -640 -544 0
v -656 -544 0
v -656 -528 0
v -640 -528 0
v -624 -544 0
v -640 -544 0
v -640 -528 0
v -624 -528 0
v -608 -544 0
v -624 -544 0
v -624 -528 0
v -608 -528 0
v -592 -544 0
v -608 -544 0
v -608 -528 0
v -592 -528 0
v -576 -544 0
v -592 -544 0
v -592 -528 0
v -576 -528 0
v -560 -544 0
v -576 -544 0
v -576 -528 0
v -560 -528 0
v -544 -544 0
v -560 -544 0
v -560 -528 0
v -544 -528 0
v -1744 -560 0
v -1760 -560 0
v -1760 -544 0
v -1744 -544 0
v -1728 -560 0
v -1744 -560 0
v -1744 -544 0
v -1728 -544 0
v -1712 -560 0
v -1728 -560 0
v -1728 -544 0
v -1712 -544 0
v -1696 -560 0
v -1712 -560 0
v -1712 -544 0
v -1696 -544 0
v -1680 -560 0
v -1696 -560 0
v -1696 -544 0
v -1680 -544 0
v -1664 -560 0
v -1680 -560 0
v -1680 -544 0
v -1664 -544 0
v -1648 -560 0
v -1664 -560 0
v -1664 -544 0
v -1648 -544 0
v -1632 -560 0
v -1648 -560 0
v -1648 -544 0
v -1632 -544 0
v -1616 -560 0
v -1632 -560 0
v -1632 -544 0
v -1616 -544 0
v -1600 -560 0
v -1616 -560 0
v -1616 -544 0
v -1600 -544 0
v -1584 -560 0
v -1600 -560 0
v -1600 -544 0
v -1584 -544 0
v -1568 -560 0
v -1584 -560 0
v -1584 -544 0
v -1568 -544 0
v -1552 -560 0
v -1568 -560 0
v -1568 -544 0
v -1552 -544 0
v -1536 -560 0
v -1552 -560 0
v -1552 -544 0
v -1536 -544 0
v -1520 -560 0
v -1536 -560 0
v -1536 -544 0
v -1520 -544 0
v -1504 -560 0
v -1520 -560 0
v -1520 -544 0
v -1504 -544 0
v -1488 -560 0
v -1504 -560 0
v -1504 -544 0
v -1488 -544 0
v -1472 -560 0
v -1488 -560 0
v -1488 -544 0
v -1472 -544 0
v -1456 -560 0
v -1472 -560 0
v -1472 -544 0
v -1456 -544 0
v -1440 -560 0
v -1456 -560 0
v -1456 -544 0
v -1440 -544 0
v -1424 -560 0
v -1440 -560 0
v -1440 -544 0
v -1424 -544 0
v -1408 -560 0
v -1424 -560 0
v -1424 -544 0
v -1408 -544 0
v -1392 -560 0
v -1408 -560 0
v -1408 -544 0
v -1392 -544 0
v -1376 -560 0
v -1392 -560 0
v -1392 -544 0
v -1376 -544 0
v -1360 -560 0
v -1376 -560 0
v -1376 -544 0
v -1360 -544 0
v -1344 -560 0
v -1360 -560 0
v -1360 -544 0
v -1344 -544 0
v -1328 -560 0
v -1344 -560 0
v -1344 -544 0
v -1328 -544 0
v -1312 -560 0
v -1328 -560 0
v -1328 -544 0
v -1312 -544 0
v -1296 -560 0
v -1312 -560 0
v -1312 -544 0
v -1296 -544 0
v -1280 -560 0
v -1296 -560 0
v -1296 -544 0
v -1280 -544 0
v -1264 -560 0
v -1280 -560 0
v -1280 -544 0
v -1264 -544 0
v -1248 -560 0
v -1264 -560 0
v -1264 -544 0
v -1248 -544 0
v -1232 -560 0
v -1248 -560 0
v -1248 -544 0
v -1232 -544 0
v -1216 -560 0
v -1232 -560 0
v -1232 -544 0
v -1216 -544 0
v -1200 -560 0
v -1216 -560 0
v -1216 -544 0
v -1200 -544 0
v -1184 -560 0
v -1200 -560 0
v -1200 -544 0
v -1184 -544 0
v -1168 -560 0
v -1184 -560 0
v -1184 -544 0
v -1168 -544 0
v -1152 -560 0
v -1168 -560 0
v -1168 -544 0
v -1152 -544 0
v -1136 -560 0
v -1152 -560 0
v -1152 -544 0
v -1136 -544 0
v -1120 -560 0
v -1136 -560 0
v -1136 -544 0
v -1120 -544 0
v -1104 -560 0
v -1120 -560 0
v -1120 -544 0
v -1104 -544 0
v -1088 -560 0
v -1104 -560 0
v -1104 -544 0
v -1088 -544 0
v -1072 -560 0
v -1088 -560 0
v -1088 -544 0
v -1072 -544 0
v -1056 -560 0
v -1072 -560 0
v -1072 -544 0
v -1056 -544 0
v -1040 -560 0
v -1056 -560 0
v -1056 -544 0
v -1040 -544 0
v -1024 -560 0
v -1040 -560 0
v -1040 -544 0
v -1024 -544 0
v -1008 -560 0
v -1024 -560 0
v -1024 -544 0
v -1008 -544 0
v -992 -560 0
v -1008 -560 0
v -1008 -544 0
v -992 -544 0
v -976 -560 0
v -992 -560 0
v -992 -544 0
v -976 -544 0
v -960 -560 0
v -976 -560 0
v -976 -544 0
v -960 -544 0
v -944 -560 0
v -960 -560 0
v -960 -544 0
v -944 -544 0
v -928 -560 0
v -944 -560 0
v -944 -544 0
v -928 -544 0
v -912 -560 0
v -928 -560 0
v -928 -544 0
v -912 -544 0
v -896 -560 0
v -912 -560 0
v -912 -544 0
v -896 -544 0
v -880 -560 0
v -896 -560 0
v -896 -544 0
v -880 -544 0
v -864 -560 0
v -880 -560 0
v -880 -544 0
v -864 -544 0
v -848 -560 0
v -864 -560 0
v -864 -544 0
v -848 -544 0
v -832 -560 0
v -848 -560 0
v -848 -544 0
v -832 -544 0
v -816 -560 0
v -832 -560 0
v -832 -544 0
v -816 -544 0
v -800 -560 0
v -816 -560 0
v -816 -544 0
v -800 -544 0
v -784 -560 0
v -800 -560 0
v -800 -544 0
v -784 -544 0
v -768 -560 0
v -784 -560 0
v -784 -544 0
v -768 -544 0
v -752 -560 0
v -768 -560 0
v -768 -544 0
v -752 -544 0
v -736 -560 0
v -752 -560 0
v -752 -544 0
v -736 -544 0
v -720 -560 0
v -736 -560 0
v -736 -544 0
v -720 -544 0
v -704 -560 0
v -720 -560 0
v -720 -544 0
v -704 -544 0
v -688 -560 0
v -704 -560 0
v -704 -544 0
v -688 -544 0
v -672 -560 0
v -688 -560 0
v -688 -544 0
v -672 -544 0
v -656 -560 0
v -672 -560 0
v -672 -544 0
v -656 -544 0
v -640 -560 0
v -656 -560 0
v -656 -544 0
v -640 -544 0
v -624 -560 0
v -640 -560 0
v -640 -544 0
v -624 -544 0
v -608 -560 0
v -624 -560 0
v -624 -544 0
v -608 -544 0
v -592 -560 0
v -608 -560 0
v -608 -544 0
v -592 -544 0
v -576 -560 0
v -592 -560 0
v -592 -544 0
v -576 -544 0
v -560 -560 0
v -576 -560 0
v -576 -544 0
v -560 -544 0
v -544 -560 0
v -560 -560 0
v -560 -544 0
v -544 -544 0

# Texture cooridinates (Count = 8)
vt 0.2809917 0.6463878
vt 0.2975207 0.6463878
vt 0.2975207 0.6768061
vt 0.2809917 0.6768061
vt 0.2809917 0.6140684
vt 0.2975207 0.6140684
vt 0.2975207 0.6444867
vt 0.2809917 0.6444867

# Normal
vn 0 0 -1

# Mesh description
g RPGMap_mesh_0004

# Faces
f 1/1/1 2/2/1 3/3/1 4/4/1
f 5/1/1 6/2/1 7/3/1 8/4/1
f 9/1/1 10/2/1 11/3/1 12/4/1
f 13/1/1 14/2/1 15/3/1 16/4/1
f 17/1/1 18/2/1 19/3/1 20/4/1
f 21/1/1 22/2/1 23/3/1 24/4/1
f 25/1/1 26/2/1 27/3/1 28/4/1
f 29/1/1 30/2/1 31/3/1 32/4/1
f 33/1/1 34/2/1 35/3/1 36/4/1
f 37/1/1 38/2/1 39/3/1 40/4/1
f 41/1/1 42/2/1 43/3/1 44/4/1
f 45/1/1 46/2/1 47/3/1 48/4/1
f 49/1/1 50/2/1 51/3/1 52/4/1
f 53/1/1 54/2/1 55/3/1 56/4/1
f 57/1/1 58/2/1 59/3/1 60/4/1
f 61/1/1 62/2/1 63/3/1 64/4/1
f 65/1/1 66/2/1 67/3/1 68/4/1
f 69/1/1 70/2/1 71/3/1 72/4/1
f 73/1/1 74/2/1 75/3/1 76/4/1
f 77/1/1 78/2/1 79/3/1 80/4/1
f 81/1/1 82/2/1 83/3/1 84/4/1
f 85/1/1 86/2/1 87/3/1 88/4/1
f 89/1/1 90/2/1 91/3/1 92/4/1
f 93/1/1 94/2/1 95/3/1 96/4/1
f 97/1/1 98/2/1 99/3/1 100/4/1
f 101/1/1 102/2/1 103/3/1 104/4/1
f 105/1/1 106/2/1 107/3/1 108/4/1
f 109/1/1 110/2/1 111/3/1 112/4/1
f 113/1/1 114/2/1 115/3/1 116/4/1
f 117/1/1 118/2/1 119/3/1 120/4/1
f 121/1/1 122/2/1 123/3/1 124/4/1
f 125/1/1 126/2/1 127/3/1 128/4/1
f 129/1/1 130/2/1 131/3/1 132/4/1
f 133/1/1 134/2/1 135/3/1 136/4/1
f 137/1/1 138/2/1 139/3/1 140/4/1
f 141/1/1 142/2/1 143/3/1 144/4/1
f 145/1/1 146/2/1 147/3/1 148/4/1
f 149/1/1 150/2/1 151/3/1 152/4/1
f 153/1/1 154/2/1 155/3/1 156/4/1
f 157/1/1 158/2/1 159/3/1 160/4/1
f 161/1/1 162/2/1 163/3/1 164/4/1
f 165/1/1 166/2/1 167/3/1 168/4/1
f 169/1/1 170/2/1 171/3/1 172/4/1
f 173/1/1 174/2/1 175/3/1 176/4/1
f 177/1/1 178/2/1 179/3/1 180/4/1
f 181/1/1 182/2/1 183/3/1 184/4/1
f 185/1/1 186/2/1 187/3/1 188/4/1
f 189/1/1 190/2/1 191/3/1 192/4/1
f 193/1/1 194/2/1 195/3/1 196/4/1
f 197/1/1 198/2/1 199/3/1 200/4/1
f 201/1/1 202/2/1 203/3/1 204/4/1
f 205/1/1 206/2/1 207/3/1 208/4/1
f 209/1/1 210/2/1 211/3/1 212/4/1
f 213/1/1 214/2/1 215/3/1 216/4/1
f 217/1/1 218/2/1 219/3/1 220/4/1
f 221/1/1 222/2/1 223/3/1 224/4/1
f 225/1/1 226/2/1 227/3/1 228/4/1
f 229/1/1 230/2/1 231/3/1 232/4/1
f 233/1/1 234/2/1 235/3/1 236/4/1
f 237/1/1 238/2/1 239/3/1 240/4/1
f 241/1/1 242/2/1 243/3/1 244/4/1
f 245/1/1 246/2/1 247/3/1 248/4/1
f 249/1/1 250/2/1 251/3/1 252/4/1
f 253/1/1 254/2/1 255/3/1 256/4/1
f 257/1/1 258/2/1 259/3/1 260/4/1
f 261/1/1 262/2/1 263/3/1 264/4/1
f 265/1/1 266/2/1 267/3/1 268/4/1
f 269/1/1 270/2/1 271/3/1 272/4/1
f 273/1/1 274/2/1 275/3/1 276/4/1
f 277/1/1 278/2/1 279/3/1 280/4/1
f 281/1/1 282/2/1 283/3/1 284/4/1
f 285/1/1 286/2/1 287/3/1 288/4/1
f 289/1/1 290/2/1 291/3/1 292/4/1
f 293/1/1 294/2/1 295/3/1 296/4/1
f 297/1/1 298/2/1 299/3/1 300/4/1
f 301/1/1 302/2/1 303/3/1 304/4/1
f 305/5/1 306/6/1 307/7/1 308/8/1
f 309/5/1 310/6/1 311/7/1 312/8/1
f 313/5/1 314/6/1 315/7/1 316/8/1
f 317/5/1 318/6/1 319/7/1 320/8/1
f 321/5/1 322/6/1 323/7/1 324/8/1
f 325/5/1 326/6/1 327/7/1 328/8/1
f 329/5/1 330/6/1 331/7/1 332/8/1
f 333/5/1 334/6/1 335/7/1 336/8/1
f 337/5/1 338/6/1 339/7/1 340/8/1
f 341/5/1 342/6/1 343/7/1 344/8/1
f 345/5/1 346/6/1 347/7/1 348/8/1
f 349/5/1 350/6/1 351/7/1 352/8/1
f 353/5/1 354/6/1 355/7/1 356/8/1
f 357/5/1 358/6/1 359/7/1 360/8/1
f 361/5/1 362/6/1 363/7/1 364/8/1
f 365/5/1 366/6/1 367/7/1 368/8/1
f 369/5/1 370/6/1 371/7/1 372/8/1
f 373/5/1 374/6/1 375/7/1 376/8/1
f 377/5/1 378/6/1 379/7/1 380/8/1
f 381/5/1 382/6/1 383/7/1 384/8/1
f 385/5/1 386/6/1 387/7/1 388/8/1
f 389/5/1 390/6/1 391/7/1 392/8/1
f 393/5/1 394/6/1 395/7/1 396/8/1
f 397/5/1 398/6/1 399/7/1 400/8/1
f 401/5/1 402/6/1 403/7/1 404/8/1
f 405/5/1 406/6/1 407/7/1 408/8/1
f 409/5/1 410/6/1 411/7/1 412/8/1
f 413/5/1 414/6/1 415/7/1 416/8/1
f 417/5/1 418/6/1 419/7/1 420/8/1
f 421/5/1 422/6/1 423/7/1 424/8/1
f 425/5/1 426/6/1 427/7/1 428/8/1
f 429/5/1 430/6/1 431/7/1 432/8/1
f 433/5/1 434/6/1 435/7/1 436/8/1
f 437/5/1 438/6/1 439/7/1 440/8/1
f 441/5/1 442/6/1 443/7/1 444/8/1
f 445/5/1 446/6/1 447/7/1 448/8/1
f 449/5/1 450/6/1 451/7/1 452/8/1
f 453/5/1 454/6/1 455/7/1 456/8/1
f 457/5/1 458/6/1 459/7/1 460/8/1
f 461/5/1 462/6/1 463/7/1 464/8/1
f 465/5/1 466/6/1 467/7/1 468/8/1
f 469/5/1 470/6/1 471/7/1 472/8/1
f 473/5/1 474/6/1 475/7/1 476/8/1
f 477/5/1 478/6/1 479/7/1 480/8/1
f 481/5/1 482/6/1 483/7/1 484/8/1
f 485/5/1 486/6/1 487/7/1 488/8/1
f 489/5/1 490/6/1 491/7/1 492/8/1
f 493/5/1 494/6/1 495/7/1 496/8/1
f 497/5/1 498/6/1 499/7/1 500/8/1
f 501/5/1 502/6/1 503/7/1 504/8/1
f 505/5/1 506/6/1 507/7/1 508/8/1
f 509/5/1 510/6/1 511/7/1 512/8/1
f 513/5/1 514/6/1 515/7/1 516/8/1
f 517/5/1 518/6/1 519/7/1 520/8/1
f 521/5/1 522/6/1 523/7/1 524/8/1
f 525/5/1 526/6/1 527/7/1 528/8/1
f 529/5/1 530/6/1 531/7/1 532/8/1
f 533/5/1 534/6/1 535/7/1 536/8/1
f 537/5/1 538/6/1 539/7/1 540/8/1
f 541/5/1 542/6/1 543/7/1 544/8/1
f 545/5/1 546/6/1 547/7/1 548/8/1
f 549/5/1 550/6/1 551/7/1 552/8/1
f 553/5/1 554/6/1 555/7/1 556/8/1
f 557/5/1 558/6/1 559/7/1 560/8/1
f 561/5/1 562/6/1 563/7/1 564/8/1
f 565/5/1 566/6/1 567/7/1 568/8/1
f 569/5/1 570/6/1 571/7/1 572/8/1
f 573/5/1 574/6/1 575/7/1 576/8/1
f 577/5/1 578/6/1 579/7/1 580/8/1
f 581/5/1 582/6/1 583/7/1 584/8/1
f 585/5/1 586/6/1 587/7/1 588/8/1
f 589/5/1 590/6/1 591/7/1 592/8/1
f 593/5/1 594/6/1 595/7/1 596/8/1
f 597/5/1 598/6/1 599/7/1 600/8/1
f 601/5/1 602/6/1 603/7/1 604/8/1
f 605/5/1 606/6/1 607/7/1 608/8/1

